<svg width="33" height="33" viewBox="0 0 33 33" fill="none" xmlns="http://www.w3.org/2000/svg">
<path d="M27.2075 23.2076L23.2075 27.2076C23.0199 27.3952 22.7654 27.5006 22.5 27.5006C22.2346 27.5006 21.9801 27.3952 21.7925 27.2076C21.6049 27.0199 21.4994 26.7654 21.4994 26.5001C21.4994 26.2347 21.6049 25.9802 21.7925 25.7926L24.0862 23.5001H6.49999C6.23478 23.5001 5.98042 23.3947 5.79289 23.2072C5.60535 23.0196 5.49999 22.7653 5.49999 22.5001C5.49999 22.2349 5.60535 21.9805 5.79289 21.793C5.98042 21.6054 6.23478 21.5001 6.49999 21.5001H24.0862L21.7925 19.2076C21.6049 19.0199 21.4994 18.7654 21.4994 18.5001C21.4994 18.2347 21.6049 17.9802 21.7925 17.7926C21.9801 17.6049 22.2346 17.4995 22.5 17.4995C22.7654 17.4995 23.0199 17.6049 23.2075 17.7926L27.2075 21.7926C27.3005 21.8854 27.3742 21.9957 27.4246 22.1171C27.4749 22.2385 27.5008 22.3687 27.5008 22.5001C27.5008 22.6315 27.4749 22.7616 27.4246 22.883C27.3742 23.0044 27.3005 23.1147 27.2075 23.2076ZM9.79249 15.2076C9.98013 15.3952 10.2346 15.5006 10.5 15.5006C10.7654 15.5006 11.0199 15.3952 11.2075 15.2076C11.3951 15.0199 11.5005 14.7654 11.5005 14.5001C11.5005 14.2347 11.3951 13.9802 11.2075 13.7926L8.91374 11.5001H26.5C26.7652 11.5001 27.0196 11.3947 27.2071 11.2072C27.3946 11.0196 27.5 10.7653 27.5 10.5001C27.5 10.2349 27.3946 9.9805 27.2071 9.79296C27.0196 9.60542 26.7652 9.50007 26.5 9.50007H8.91374L11.2075 7.20757C11.3951 7.01993 11.5005 6.76543 11.5005 6.50007C11.5005 6.2347 11.3951 5.98021 11.2075 5.79257C11.0199 5.60493 10.7654 5.49951 10.5 5.49951C10.2346 5.49951 9.98013 5.60493 9.79249 5.79257L5.79249 9.79257C5.69952 9.88544 5.62576 9.99573 5.57543 10.1171C5.52511 10.2385 5.49921 10.3687 5.49921 10.5001C5.49921 10.6315 5.52511 10.7616 5.57543 10.883C5.62576 11.0044 5.69952 11.1147 5.79249 11.2076L9.79249 15.2076Z" fill="var(--main-phone-color)"/>
</svg>
