<svg fill="var(--main-orange-color)" height="15" viewBox="0 0 15 15" width="15" xmlns="http://www.w3.org/2000/svg"
xmlns:xlink="http://www.w3.org/1999/xlink"><clipPath id="a"><path d="m.5.5h14v14h-14z"/></clipPath><g clip-path="url(#a)" stroke="var(--main-orange-color)" stroke-linecap="round" stroke-linejoin="round"><path d="m5.65264 1.592c-1.62061-.16095-2.51073-.16104-4.06058 0-.16104 1.54985-.16095 2.43997 0 4.06058m4.01513-.04542-4.01147-4.01147z"/><path d="m1.59201 9.40913c-.16096 1.62057-.16105 2.51077 0 4.06057 1.54984.1611 2.43996.161 4.06058 0m-.04544-4.01513-4.01966 4.01963z"/><path d="m9.40912 13.4697c1.62058.161 2.51068.1611 4.06058 0 .161-1.5498.1609-2.4399 0-4.06057m.003 4.06357-3.97269-3.97271z"/><path d="m13.4697 5.65262c.161-1.62062.1611-2.51074 0-4.06058-1.5498-.16105-2.44-.16096-4.06058 0m4.00488-.00611-3.91402 3.91406z" /></g></svg>