<?xml version="1.0" encoding="UTF-8"?>
<svg version="1.1" xmlns="http://www.w3.org/2000/svg" width="575" height="434">
<path d="M0 0 C4.83218381 4.83218381 3.13312384 15.61419476 3.13894653 22.10375977 C3.13715481 23.52750685 3.13510338 24.95125363 3.1328125 26.375 C3.13348816 27.86840836 3.13446037 29.36181662 3.13571167 30.85522461 C3.13717994 33.97852632 3.13506465 37.10179931 3.13037109 40.22509766 C3.12471417 44.17696463 3.1279326 48.12876305 3.13394356 52.08062744 C3.13760701 55.16608163 3.13638381 58.25152037 3.13381577 61.3369751 C3.13316028 62.79103606 3.13392516 64.24509854 3.13629532 65.69915771 C3.14960513 76.1689822 2.71183047 86.55643728 2 97 C3.24434814 97.3086499 4.48869629 97.6172998 5.77075195 97.93530273 C10.79851802 99.18239706 15.75877362 100.64506616 20.73046875 102.09765625 C23.480913 102.85673943 26.19508233 103.48761391 29 104 C29 104.66 29 105.32 29 106 C30.65 106.33 32.3 106.66 34 107 C34.80013406 113.31456342 35.14158274 119.45322127 35.12025452 125.8139801 C35.12153615 127.2343404 35.12153615 127.2343404 35.12284368 128.68339485 C35.12448155 131.83395284 35.119005 134.98445674 35.11352539 138.13500977 C35.11324313 140.40231831 35.11340202 142.66962694 35.1139679 144.93693542 C35.11425434 151.07671057 35.10838227 157.2164661 35.10139394 163.3562367 C35.09513499 169.77841927 35.09455459 176.20060232 35.09336853 182.62278748 C35.09061539 193.39704796 35.08437275 204.17129989 35.07543945 214.94555664 C35.06625059 226.0396318 35.05917697 237.133705 35.05493164 248.2277832 C35.05453756 249.25474991 35.05453756 249.25474991 35.05413551 250.30246342 C35.0528304 253.73736409 35.05156671 257.17226477 35.05032361 260.60716546 C35.03996873 289.07144857 35.02229123 317.5357239 35 346 C33.40285003 345.68949376 31.80618051 345.37651558 30.2097168 345.0625 C28.87592232 344.80146484 28.87592232 344.80146484 27.5151825 344.53515625 C24.52678249 343.89931335 21.69240227 343.01690342 18.8125 342 C15.71477819 340.92937696 12.65251283 339.90071795 9.5 339 C6.3929924 338.11228354 3.36813556 337.11003353 0.3125 336.0625 C-4.81472088 334.33206295 -9.96258324 332.97652622 -15.21875 331.703125 C-20.60986371 330.340203 -25.79490796 328.43624878 -31.01953125 326.546875 C-38.29330781 323.92847583 -45.36980172 321.38730878 -53 320 C-53 319.34 -53 318.68 -53 318 C-54.50494019 317.82017578 -54.50494019 317.82017578 -56.0402832 317.63671875 C-59.94944133 317.07502042 -63.58880285 316.01139244 -67.35546875 314.8125 C-68.04677383 314.59409454 -68.73807892 314.37568909 -69.45033264 314.15066528 C-71.69778928 313.43911192 -73.94264349 312.71970998 -76.1875 312 C-77.75409592 311.50201385 -79.32082934 311.00446005 -80.88769531 310.50732422 C-84.84296981 309.2507172 -88.79600956 307.98724538 -92.74822998 306.72106934 C-94.87617945 306.03965023 -97.00461894 305.35979138 -99.13330078 304.68066406 C-112.11669274 300.53782311 -125.0906537 296.36897945 -138 292 C-138.33 292.66 -138.66 293.32 -139 294 C-141.02929687 294.68237305 -141.02929687 294.68237305 -143.71875 295.32421875 C-150.4786904 297.06525096 -156.94725156 299.4205498 -163.5 301.8125 C-178.40014635 307.19802206 -193.43957559 312.1205815 -208.5234375 316.96411133 C-218.09291661 320.04245722 -227.60902942 323.23215203 -237.08685303 326.5826416 C-244.24186056 329.10549414 -251.45469979 331.39539417 -258.71679688 333.58984375 C-263.24508907 334.99279101 -266.9363261 336.53737291 -271 339 C-273.50846758 339.72978648 -275.9572647 340.36915265 -278.5 340.9375 C-284.87054781 342.42569873 -291.0403394 344.22573979 -297.23046875 346.36328125 C-300.22196632 347.05103034 -302.07320863 346.82934673 -305 346 C-305.90702366 343.27892903 -306.12521128 341.71647478 -306.12584114 338.92230225 C-306.12844889 338.08913105 -306.13105664 337.25595985 -306.13374341 336.39754105 C-306.13151268 335.48228024 -306.12928196 334.56701942 -306.12698364 333.62402344 C-306.12854363 332.6516914 -306.13010362 331.67935936 -306.13171089 330.67756271 C-306.13571381 327.40481826 -306.13253395 324.13211983 -306.12939453 320.859375 C-306.13074888 318.519002 -306.13252901 316.17862922 -306.13470459 313.83825684 C-306.13927486 307.47066224 -306.13749102 301.10308378 -306.1343255 294.73548889 C-306.13205559 288.75617405 -306.13378527 282.77686071 -306.1352527 276.79754591 C-306.13810582 264.23321584 -306.1348231 251.66889306 -306.12945233 239.10456419 C-306.12498445 228.31840372 -306.12576043 217.53225402 -306.13037109 206.74609375 C-306.13571982 194.22742663 -306.13783114 181.70876591 -306.13475883 169.19009781 C-306.13317614 162.5607711 -306.13299969 155.9314504 -306.13629532 149.30212402 C-306.13917654 143.0707373 -306.13719368 136.83937096 -306.13140106 130.60798645 C-306.13007482 128.31618789 -306.13046529 126.02438762 -306.13266373 123.73258972 C-306.13538051 120.61369522 -306.13198753 117.49486681 -306.12698364 114.37597656 C-306.13032973 113.00308535 -306.13032973 113.00308535 -306.13374341 111.60245895 C-306.13113566 110.76928776 -306.12852791 109.93611656 -306.12584114 109.07769775 C-306.12567879 108.35747562 -306.12551644 107.63725349 -306.12534916 106.89520645 C-306 105 -306 105 -305 102 C-303.14453125 100.90234375 -303.14453125 100.90234375 -300.8125 99.9375 C-300.05582031 99.61652344 -299.29914063 99.29554687 -298.51953125 98.96484375 C-295.7048746 97.88698299 -292.86539804 96.93444828 -290 96 C-281.66631565 93.27313314 -281.66631565 93.27313314 -273.4375 90.25 C-270 89 -270 89 -267 89 C-267 60.95 -267 32.9 -267 4 C-218.4084507 20.1971831 -218.4084507 20.1971831 -211.5546875 23 C-205.79683623 25.2538378 -199.87793798 27.0768173 -193.9921875 28.96484375 C-188.9590613 30.6009383 -184.05363357 32.35294479 -179.1875 34.4375 C-173.4364745 36.89147161 -167.57165523 38.86800815 -161.6328125 40.80078125 C-157.47412447 42.17359547 -153.3699132 43.66626909 -149.26953125 45.203125 C-144.51128613 46.87383413 -142.74574913 47.09799072 -138.03027344 44.88378906 C-135.84618586 43.93304387 -133.68037619 43.26452156 -131.390625 42.609375 C-126.15641022 41.06917032 -121.01930028 39.3151426 -115.875 37.5 C-113.83481019 36.78595876 -111.79443506 36.07244689 -109.75390625 35.359375 C-108.66480957 34.97845703 -107.57571289 34.59753906 -106.45361328 34.20507812 C-100.24497874 32.03868338 -94.02985614 29.89120487 -87.8125 27.75 C-87.15329559 27.52280273 -86.49409119 27.29560547 -85.81491089 27.06152344 C-77.62321812 24.2406581 -69.41824077 21.46290837 -61.1953125 18.734375 C-60.37912949 18.46341003 -59.56294647 18.19244507 -58.72203064 17.91326904 C-54.74640937 16.59441069 -50.76939604 15.27996528 -46.7902832 13.97167969 C-45.33803442 13.49159383 -43.8858037 13.01145331 -42.43359375 12.53125 C-41.78387604 12.31917908 -41.13415833 12.10710815 -40.4647522 11.88861084 C-36.19334383 10.47248597 -32.11843155 8.79966402 -28 7 C-26.4691759 6.48724824 -24.92781557 6.00420195 -23.375 5.5625 C-20.44956868 4.7202625 -17.5432546 3.85324595 -14.64453125 2.921875 C-12.93330078 2.37273438 -12.93330078 2.37273438 -11.1875 1.8125 C-10.12917969 1.46832031 -9.07085937 1.12414062 -7.98046875 0.76953125 C-5.12918287 0.0333539 -2.92238968 -0.31110955 0 0 Z M-17.6875 14.6875 C-23.22932044 16.67356231 -28.77928234 18.60683992 -34.375 20.4375 C-40.15991646 22.34326419 -45.86068076 24.42212304 -51.5625 26.5625 C-58.33623426 29.1005291 -65.09119036 31.26579055 -72.0703125 33.17578125 C-75.81760095 34.2300184 -79.39189131 35.54869371 -83 37 C-89.57793061 39.64188258 -96.10129731 42.10489106 -102.9375 44 C-107.93580333 45.39278565 -112.89372443 46.85007503 -117.8125 48.5 C-118.97394531 48.8815625 -120.13539063 49.263125 -121.33203125 49.65625 C-124.16142835 50.69916039 -124.16142835 50.69916039 -124.76171875 53.09375 C-124.84035156 53.7228125 -124.91898438 54.351875 -125 55 C-125.99 55.495 -125.99 55.495 -127 56 C-125.79730469 56.32871094 -125.79730469 56.32871094 -124.5703125 56.6640625 C-116.82296094 58.82488845 -109.18419825 61.21051355 -101.57080078 63.80517578 C-97.84649035 65.07030736 -94.1170606 66.2754224 -90.34375 67.38671875 C-84.40762112 69.14804419 -78.54729891 71.12540004 -72.67956543 73.10079956 C-62.72558667 76.44980617 -52.75961151 79.75789368 -42.75 82.9375 C-41.90147461 83.20723633 -41.05294922 83.47697266 -40.17871094 83.75488281 C-35.2055046 85.32651933 -30.21661295 86.83880395 -25.21826172 88.32836914 C-21.89835877 89.33354777 -18.61098671 90.43860944 -15.32421875 91.546875 C-12.55286644 92.2400205 -12.55286644 92.2400205 -8 91 C-8 64.93 -8 38.86 -8 12 C-11.40371246 12 -14.51594021 13.53764471 -17.6875 14.6875 Z M-149.375 59.42578125 C-150.73044922 59.87920898 -150.73044922 59.87920898 -152.11328125 60.34179688 C-153.06589844 60.66212891 -154.01851562 60.98246094 -155 61.3125 C-155.92167969 61.62123047 -156.84335938 61.92996094 -157.79296875 62.24804688 C-159.55101318 62.83695456 -161.30885053 63.42648109 -163.06640625 64.0168457 C-164.72698072 64.57336479 -166.38787213 65.12894615 -168.04978943 65.68144226 C-173.1583286 67.37977543 -178.25642584 69.10598809 -183.34765625 70.85546875 C-184.92576077 71.39678824 -186.50388658 71.93804565 -188.08203125 72.47924805 C-189.30140381 72.89755386 -189.30140381 72.89755386 -190.54541016 73.3243103 C-204.96725219 78.27001595 -219.40180472 83.17165221 -233.87548828 87.96386719 C-239.563394 89.85005814 -245.24748331 91.74771859 -250.93212891 93.64370728 C-254.08874226 94.69644013 -257.24555065 95.74858752 -260.40234375 96.80078125 C-261.98776978 97.32925659 -261.98776978 97.32925659 -263.60522461 97.8684082 C-269.8026123 99.9342041 -269.8026123 99.9342041 -276 102 C-282.6 104.31 -289.2 106.62 -296 109 C-296 181.27 -296 253.54 -296 328 C-295.34 328 -294.68 328 -294 328 C-294 329.32 -294 330.64 -294 332 C-289.28015145 333.12410594 -286.6809987 332.85408277 -282.25 330.9375 C-276.88595333 328.73309726 -271.50763579 326.75463134 -266 324.9375 C-265.23276611 324.68371582 -264.46553223 324.42993164 -263.67504883 324.16845703 C-258.07960501 322.33008155 -252.45988406 320.57839328 -246.82421875 318.8671875 C-243.61324277 317.88124467 -240.42653171 316.83579008 -237.24511719 315.75878906 C-235.10138204 315.03426439 -232.95555084 314.31647682 -230.80859375 313.6015625 C-229.63127686 313.20940552 -229.63127686 313.20940552 -228.43017578 312.80932617 C-227.62821777 312.54224854 -226.82625977 312.2751709 -226 312 C-224.46482757 311.48832978 -222.92967112 310.97661163 -221.39453125 310.46484375 C-208.65039062 306.21679688 -195.90625 301.96875 -183.16210938 297.72070312 C-182.50892731 297.50297241 -181.85574524 297.2852417 -181.18276978 297.06091309 C-179.88653362 296.62884112 -178.59028938 296.19679339 -177.29403687 295.76477051 C-174.65563644 294.88540402 -172.01732221 294.00578375 -169.37939453 293.125 C-165.66214383 291.8840214 -161.94237678 290.65141473 -158.21875 289.4296875 C-157.05085938 289.04490234 -157.05085938 289.04490234 -155.859375 288.65234375 C-154.25594487 288.12406131 -152.65174773 287.59810236 -151.046875 287.07421875 C-147.2283782 286.06812278 -147.2283782 286.06812278 -144 284 C-143.90204189 281.09219395 -143.87008004 278.20813454 -143.87974548 275.2999115 C-143.87889106 274.37617424 -143.87803663 273.45243698 -143.87715632 272.50070769 C-143.87549868 269.38057951 -143.8810275 266.26050415 -143.88647461 263.14038086 C-143.88675645 260.9136607 -143.88659882 258.68694044 -143.8860321 256.46022034 C-143.88574399 250.39434923 -143.89164291 244.32849771 -143.89860606 238.26263118 C-143.90483734 231.93115636 -143.90544322 225.59968115 -143.90663147 219.26820374 C-143.90939117 208.6344464 -143.91564669 198.00069685 -143.92456055 187.36694336 C-143.93373396 176.41219112 -143.94081514 165.45744085 -143.94506836 154.50268555 C-143.94533108 153.82788727 -143.94559381 153.15308899 -143.94586449 152.45784228 C-143.94716949 149.07271283 -143.94843321 145.68758336 -143.94967639 142.30245388 C-143.96004986 114.20163089 -143.97774304 86.10081589 -144 58 C-145.86187118 58 -147.62741582 58.83952051 -149.375 59.42578125 Z M-62 122 C-62.38671875 123.0621875 -62.7734375 124.124375 -63.171875 125.21875 C-67.94060218 138.19798138 -67.94060218 138.19798138 -71.0078125 143.96484375 C-72.85569503 147.75518548 -74.24410542 151.73700772 -75.73046875 155.6796875 C-76.84933725 158.60595896 -78.02672869 161.49127452 -79.25 164.375 C-82.1765937 171.32102935 -84.89184176 178.34852753 -87.61425781 185.37646484 C-90.30360076 192.29718337 -93.12514867 199.15452068 -96 206 C-97.82031727 210.35694121 -99.63682246 214.71544202 -101.44921875 219.07568359 C-101.9892107 220.37331058 -102.53024966 221.6705023 -103.07226562 222.96728516 C-103.86854108 224.87293004 -104.66118961 226.78004814 -105.453125 228.6875 C-105.91879883 229.80511719 -106.38447266 230.92273438 -106.86425781 232.07421875 C-107.76476059 234.39400062 -108.48478596 236.57303184 -109 239 C-102.40620337 241.29561809 -95.75052102 243.22089072 -89 245 C-88.505 243.515 -88.505 243.515 -88 242 C-87.34 242 -86.68 242 -86 242 C-84.66087415 238.87745057 -83.32969342 235.75157642 -82 232.625 C-81.42765625 231.29082031 -81.42765625 231.29082031 -80.84375 229.9296875 C-80.4828125 229.07890625 -80.121875 228.228125 -79.75 227.3515625 C-79.24726563 226.17327881 -79.24726563 226.17327881 -78.734375 224.97119141 C-77.88362899 223.03823065 -77.88362899 223.03823065 -78 221 C-76.35 221 -74.7 221 -73 221 C-73 221.66 -73 222.32 -73 223 C-72.27683594 223.12761719 -71.55367187 223.25523437 -70.80859375 223.38671875 C-68.08231849 223.98202503 -65.66208697 224.80711274 -63.0625 225.8125 C-56.47761438 228.25856787 -49.76953889 230.13914259 -43 232 C-41.92234375 232.30292969 -40.8446875 232.60585938 -39.734375 232.91796875 C-34.93679663 234.40903631 -34.93679663 234.40903631 -30 235 C-29.91363281 235.58523438 -29.82726562 236.17046875 -29.73828125 236.7734375 C-28.69355005 243.15684096 -27.17197971 249.33823114 -25.4375 255.5625 C-25.21553955 256.36026855 -24.9935791 257.15803711 -24.76489258 257.97998047 C-23.63505227 262.08343226 -23.63505227 262.08343226 -22 266 C-19.39058324 266.83442366 -16.84378268 267.54376395 -14.1875 268.1875 C-13.46240234 268.37763672 -12.73730469 268.56777344 -11.99023438 268.76367188 C-8.26889211 269.68634685 -5.65745832 270.13150237 -2 269 C-4.59238422 258.36977644 -7.3943194 247.81441949 -10.35888672 237.28222656 C-11.41465695 233.52390969 -12.45673522 229.7618035 -13.5 226 C-14.73642753 221.54635721 -15.97374777 217.09296932 -17.21484375 212.640625 C-19.5188409 204.37041016 -21.8015966 196.09460642 -24.0625 187.8125 C-24.29573975 186.95881836 -24.52897949 186.10513672 -24.76928711 185.22558594 C-25.51623161 182.48462888 -26.25837979 179.74240233 -27 177 C-27.30647461 175.874729 -27.61294922 174.74945801 -27.92871094 173.59008789 C-29.54191872 167.61719002 -31.10226409 161.64766994 -32.50117493 155.6214447 C-33.17612557 152.73797863 -33.88469807 149.86328896 -34.59765625 146.98901367 C-34.95314789 145.52178776 -35.29367893 144.05086638 -35.62011719 142.5769043 C-37.25804177 133.94571442 -37.25804177 133.94571442 -42.30126953 127.18798828 C-44.8802461 126.12537018 -47.25936937 125.49409238 -50 125 C-51.78277344 124.48179687 -51.78277344 124.48179687 -53.6015625 123.953125 C-54.59929687 123.72109375 -55.59703125 123.4890625 -56.625 123.25 C-57.64851563 123.00765625 -58.67203125 122.7653125 -59.7265625 122.515625 C-60.47679687 122.34546875 -61.22703125 122.1753125 -62 122 Z " fill="var(--main-deafultsvg-color)" transform="translate(409,26)"/>
<path d="M0 0 C1.65 0.33 3.3 0.66 5 1 C6.75487446 7.64912232 4.92929819 11.08448937 1.5625 16.875 C0.62674163 18.55666939 -0.30548663 20.24030741 -1.234375 21.92578125 C-1.70294922 22.77092285 -2.17152344 23.61606445 -2.65429688 24.48681641 C-4.67786939 28.26596289 -6.42896396 32.1549845 -8.1875 36.0625 C-10.78798134 41.76373086 -13.68390436 46.80612984 -17.45703125 51.83984375 C-19.74650654 55.04510915 -21.34779363 58.43123425 -23 62 C-22.28972656 62.26554687 -21.57945312 62.53109375 -20.84765625 62.8046875 C-19.92855469 63.15789062 -19.00945312 63.51109375 -18.0625 63.875 C-17.14597656 64.22304687 -16.22945313 64.57109375 -15.28515625 64.9296875 C-13 66 -13 66 -12 68 C-10.03671287 68.66611528 -8.06942334 69.3214882 -6.08984375 69.9375 C-1.22054734 71.61189775 3.49631218 73.65087741 8.234375 75.6628418 C11.98580026 77.38055343 11.98580026 77.38055343 16 78 C16 78.66 16 79.32 16 80 C17.1446875 80.0928125 17.1446875 80.0928125 18.3125 80.1875 C21 81 21 81 22.8125 83 C24.42037032 87.06198818 24.25373128 90.68656819 24 95 C17.31672948 94.53588399 11.98535055 92.01716395 6 89.125 C4.98776367 88.64047363 3.97552734 88.15594727 2.93261719 87.65673828 C-4.75474481 83.86435522 -11.54099965 79.44556993 -18.234375 74.1171875 C-20.86778767 71.8631956 -20.86778767 71.8631956 -24 71 C-24.66 70.01 -25.32 69.02 -26 68 C-26.66 68 -27.32 68 -28 68 C-29.19469742 69.61743651 -30.30276784 71.29890595 -31.375 73 C-36.54463118 80.95183268 -42.22859649 88.47776718 -48 96 C-48.71285156 96.93070312 -49.42570312 97.86140625 -50.16015625 98.8203125 C-54.62859147 104.527431 -59.44806899 109.85507369 -64.3828125 115.15625 C-67.17274968 118.18770413 -69.84360303 121.29889472 -72.46484375 124.4765625 C-74.16966874 126.16837356 -75.80972004 127.04441349 -78 128 C-78 128.66 -78 129.32 -78 130 C-78.99 130 -79.98 130 -81 130 C-81 130.66 -81 131.32 -81 132 C-83.64 131.67 -86.28 131.34 -89 131 C-88.67 130.01 -88.34 129.02 -88 128 C-87.34 128 -86.68 128 -86 128 C-85.76539063 127.44570313 -85.53078125 126.89140625 -85.2890625 126.3203125 C-83.67545708 123.41582275 -81.65276205 121.29379995 -79.375 118.875 C-72.01589095 110.91966989 -65.54290919 102.4534909 -59.1875 93.6875 C-58.62377686 92.91011475 -58.06005371 92.13272949 -57.47924805 91.33178711 C-55.26662048 88.25553285 -53.13847199 85.23917889 -51.23828125 81.95703125 C-50.82964844 81.31121094 -50.42101562 80.66539062 -50 80 C-49.34 80 -48.68 80 -48 80 C-47.7525 79.29875 -47.505 78.5975 -47.25 77.875 C-45.83711898 74.62537364 -43.9916087 71.92517528 -42 69 C-41.30570621 67.6808418 -40.62469505 66.35350594 -40 65 C-39.34 65 -38.68 65 -38 65 C-37.79503906 64.37351562 -37.59007812 63.74703125 -37.37890625 63.1015625 C-37.10949219 62.28429687 -36.84007812 61.46703125 -36.5625 60.625 C-36.29566406 59.81289062 -36.02882812 59.00078125 -35.75390625 58.1640625 C-35 56 -35 56 -34 54 C-33.34 54 -32.68 54 -32 54 C-31.731875 53.113125 -31.46375 52.22625 -31.1875 51.3125 C-30.07507331 48.20941503 -28.68658758 45.81097929 -27 43 C-26.28856912 41.01548229 -25.61008664 39.01797888 -25 37 C-24.34 37 -23.68 37 -23 37 C-22.80664062 36.39671875 -22.61328125 35.7934375 -22.4140625 35.171875 C-22.15367187 34.37265625 -21.89328125 33.5734375 -21.625 32.75 C-21.24214844 31.56664062 -21.24214844 31.56664062 -20.8515625 30.359375 C-20.04826333 28.13372042 -19.10288338 26.09068328 -18 24 C-21.86851935 22.52807556 -24.52472708 23.51145067 -28.375 24.75 C-29.47585937 25.09546875 -30.57671875 25.4409375 -31.7109375 25.796875 C-35.02243094 26.93534357 -35.02243094 26.93534357 -38.09765625 28.56640625 C-40.82684852 29.91447296 -43.08684967 30.63575501 -46.0625 31.1875 C-46.87847656 31.34605469 -47.69445312 31.50460938 -48.53515625 31.66796875 C-51.05437185 32.00732426 -53.46124391 32.05883036 -56 32 C-56.1546875 33.423125 -56.1546875 33.423125 -56.3125 34.875 C-57 38 -57 38 -60 40 C-65.85359969 41.51028795 -73.63276623 42.85477942 -79.11328125 39.8359375 C-81.78599896 37.34820503 -82.89735705 35.78692929 -83.375 32.125 C-83.25125 31.42375 -83.1275 30.7225 -83 30 C-79.05123273 28.57405626 -75.07293635 27.49797072 -71 26.5 C-66.92034873 25.49885858 -62.97723247 24.35395148 -59 23 C-56.16661679 22.24443114 -53.33009548 21.50447797 -50.48828125 20.78125 C-47.78834033 20.06110426 -47.78834033 20.06110426 -45 18 C-43.30679964 17.46983398 -41.59541794 16.99628059 -39.875 16.5625 C-29.56095058 13.9466179 -20.25281453 9.93530383 -10.64453125 5.40820312 C-9.70222656 4.97056641 -8.75992188 4.53292969 -7.7890625 4.08203125 C-6.94037598 3.68218018 -6.09168945 3.2823291 -5.21728516 2.87036133 C-3 2 -3 2 0 2 C0 1.34 0 0.68 0 0 Z " fill="var(--main-language-color)" transform="translate(225,170)"/>
<path d="M0 0 C12.11494481 0.40481886 24.04021077 0.89785275 36 3 C35.67 4.98 35.34 6.96 35 9 C34.34 9 33.68 9 33 9 C32.88527344 10.01320313 32.77054688 11.02640625 32.65234375 12.0703125 C32.00895651 15.94604643 30.96191165 19.21244488 29.5625 22.875 C27.58096978 28.23544014 26.06386685 33.39052025 25 39 C23.15234375 38.77734375 23.15234375 38.77734375 21 38 C19.55509299 35.79597767 18.54308951 33.52036503 17.44140625 31.12890625 C16.10324834 28.86388186 16.10324834 28.86388186 13.74609375 27.49609375 C9.84165972 26.7907408 7.65925544 28.44319077 4.5 30.5 C3.24844538 31.26039458 1.99448462 32.01684141 0.73828125 32.76953125 C0.11002441 33.14932129 -0.51823242 33.52911133 -1.16552734 33.92041016 C-10.48882823 39.40718638 -20.45714765 42.66768301 -30.84130859 45.42529297 C-32.24001974 45.79767094 -33.63640012 46.17896361 -35.02978516 46.57080078 C-58.51912521 53.15934451 -87.94539595 55.46098849 -111.5625 48.1875 C-116.0313605 46.8439525 -120.48189763 45.63370093 -125.02783203 44.59545898 C-133.24715341 42.69497515 -140.42843485 39.76704108 -148 36 C-150.22721913 34.99566988 -152.45639083 33.99565853 -154.6875 33 C-170.13212796 25.80250348 -170.13212796 25.80250348 -172.625 20.625 C-173 18 -173 18 -171.9375 16.4375 C-170 15 -170 15 -166.8828125 15.14453125 C-162.3192825 16.14997699 -158.95358528 17.94018267 -154.9375 20.25 C-148.44885172 23.83890741 -142.15795809 26.62079274 -135.109375 28.95703125 C-132.431997 29.85509648 -129.89784845 30.87225317 -127.3125 32 C-122.46490866 33.97285694 -117.48594474 35.33722708 -112.4375 36.6875 C-111.64577393 36.90212891 -110.85404785 37.11675781 -110.03833008 37.33789062 C-82.47956697 44.49259698 -46.95021429 41.64985867 -21 30 C-18.98136479 29.26476993 -16.96052357 28.53556778 -14.9375 27.8125 C-7.48029777 24.98570008 -0.803076 21.11040424 6 17 C6 12.60077804 5.32668341 11.50831273 3 7.9375 C0 3.31944444 0 3.31944444 0 0 Z " fill="var(--main-language-color)" transform="translate(344,371)"/>
<path d="M0 0 C0.99 0.33 1.98 0.66 3 1 C3.144375 1.99 3.28875 2.98 3.4375 4 C3.5303125 4.63164062 3.623125 5.26328125 3.71875 5.9140625 C3.91142753 7.34308754 4.07677618 8.7759878 4.21875 10.2109375 C4.41457895 12.14824535 4.70142459 14.07584735 5 16 C5.66 16.33 6.32 16.66 7 17 C7.4964164 19.05257391 7.9783454 21.10945743 8.39746094 23.17919922 C9.57599057 28.69651341 11.14323934 34.12034244 12.625 39.5625 C12.94984375 40.76197266 13.2746875 41.96144531 13.609375 43.19726562 C14.40444397 46.13200552 15.20136085 49.06623005 16 52 C12.7 51.67 9.4 51.34 6 51 C6 50.34 6 49.68 6 49 C4.515 49.495 4.515 49.495 3 50 C0.765625 49.2578125 0.765625 49.2578125 -1.75 48.125 C-5.92892938 46.34803589 -9.49026438 45.39215092 -14 45 C-14 44.34 -14 43.68 -14 43 C-14.66 43 -15.32 43 -16 43 C-14.59390705 35.60158571 -12.56557498 28.73762085 -9.04296875 22.0703125 C-6.54778749 17.11733098 -4.62687485 11.88062455 -2.875 6.625 C-2.09133462 4.27400387 -1.1727609 2.17798453 0 0 Z " fill="var(--main-language-color)" transform="translate(356,184)"/>
<path d="M0 0 C2.4915904 3.7373856 2.45793285 5.57331583 2 10 C-2.62805644 17.01253516 -10.77329695 20.25969195 -18.625 22.625 C-23.99055239 23.58104388 -28.42226804 21.72903251 -33 19 C-37.3177735 15.47919871 -38.83897923 11.27736715 -40 6 C-38 5 -38 5 -34.6328125 5.65625 C-28.68403126 6.49418217 -23.46790373 4.34600135 -17.875 2.5 C-15.77210061 1.81098668 -13.66539 1.13347563 -11.5546875 0.46875 C-10.63155762 0.16388672 -9.70842773 -0.14097656 -8.75732422 -0.45507812 C-5.48459719 -1.10185754 -3.20612411 -0.89945053 0 0 Z " fill="var(--main-language-color)" transform="translate(202,153)"/>
<path d="" fill="var(--main-deafultsvg-color)" transform="translate(0,0)"/>
<path d="" fill="var(--main-deafultsvg-color)" transform="translate(0,0)"/>
</svg>
