<svg width="33" height="33" viewBox="0 0 33 33" fill="none" xmlns="http://www.w3.org/2000/svg">
<path d="M25.5 4.5H20.5C19.9696 4.5 19.4609 4.71071 19.0858 5.08579C18.7107 5.46086 18.5 5.96957 18.5 6.5V26.5C18.5 27.0304 18.7107 27.5391 19.0858 27.9142C19.4609 28.2893 19.9696 28.5 20.5 28.5H25.5C26.0304 28.5 26.5391 28.2893 26.9142 27.9142C27.2893 27.5391 27.5 27.0304 27.5 26.5V6.5C27.5 5.96957 27.2893 5.46086 26.9142 5.08579C26.5391 4.71071 26.0304 4.5 25.5 4.5ZM25.5 26.5H20.5V6.5H25.5V26.5ZM12.5 4.5H7.5C6.96957 4.5 6.46086 4.71071 6.08579 5.08579C5.71071 5.46086 5.5 5.96957 5.5 6.5V26.5C5.5 27.0304 5.71071 27.5391 6.08579 27.9142C6.46086 28.2893 6.96957 28.5 7.5 28.5H12.5C13.0304 28.5 13.5391 28.2893 13.9142 27.9142C14.2893 27.5391 14.5 27.0304 14.5 26.5V6.5C14.5 5.96957 14.2893 5.46086 13.9142 5.08579C13.5391 4.71071 13.0304 4.5 12.5 4.5ZM12.5 26.5H7.5V6.5H12.5V26.5Z" fill="var(--main-phone-color)"/>
</svg>
