<svg width="33" height="33" viewBox="0 0 33 33" fill="none" xmlns="http://www.w3.org/2000/svg">
<path d="M16.5 3.5C13.9288 3.5 11.4154 4.26244 9.27759 5.6909C7.13975 7.11935 5.47351 9.14968 4.48957 11.5251C3.50563 13.9006 3.24819 16.5144 3.7498 19.0362C4.25141 21.5579 5.48953 23.8743 7.30762 25.6924C9.1257 27.5105 11.4421 28.7486 13.9638 29.2502C16.4856 29.7518 19.0995 29.4944 21.4749 28.5104C23.8503 27.5265 25.8807 25.8603 27.3091 23.7224C28.7376 21.5846 29.5 19.0712 29.5 16.5C29.4964 13.0533 28.1256 9.74882 25.6884 7.31163C23.2512 4.87445 19.9467 3.50364 16.5 3.5ZM16.5 27.5C14.3244 27.5 12.1977 26.8549 10.3887 25.6462C8.57979 24.4375 7.16989 22.7195 6.33733 20.7095C5.50477 18.6995 5.28693 16.4878 5.71137 14.354C6.13581 12.2202 7.18345 10.2602 8.72183 8.72183C10.2602 7.18345 12.2202 6.1358 14.354 5.71136C16.4878 5.28692 18.6995 5.50476 20.7095 6.33733C22.7195 7.16989 24.4375 8.57979 25.6462 10.3887C26.8549 12.1977 27.5 14.3244 27.5 16.5C27.4967 19.4164 26.3367 22.2123 24.2745 24.2745C22.2123 26.3367 19.4164 27.4967 16.5 27.5ZM16.5 9.5C14.6441 9.50199 12.8648 10.2401 11.5525 11.5524C10.2401 12.8648 9.50199 14.6441 9.50001 16.5C9.50001 16.7652 9.39465 17.0196 9.20711 17.2071C9.01958 17.3946 8.76522 17.5 8.50001 17.5C8.23479 17.5 7.98044 17.3946 7.7929 17.2071C7.60536 17.0196 7.50001 16.7652 7.50001 16.5C7.50265 14.1139 8.45171 11.8262 10.139 10.139C11.8262 8.45171 14.1139 7.50265 16.5 7.5C16.7652 7.5 17.0196 7.60536 17.2071 7.79289C17.3946 7.98043 17.5 8.23478 17.5 8.5C17.5 8.76522 17.3946 9.01957 17.2071 9.20711C17.0196 9.39464 16.7652 9.5 16.5 9.5ZM25.5 16.5C25.4974 18.8861 24.5483 21.1738 22.861 22.861C21.1738 24.5483 18.8861 25.4974 16.5 25.5C16.2348 25.5 15.9804 25.3946 15.7929 25.2071C15.6054 25.0196 15.5 24.7652 15.5 24.5C15.5 24.2348 15.6054 23.9804 15.7929 23.7929C15.9804 23.6054 16.2348 23.5 16.5 23.5C18.3559 23.498 20.1352 22.7599 21.4476 21.4476C22.7599 20.1352 23.498 18.3559 23.5 16.5C23.5 16.2348 23.6054 15.9804 23.7929 15.7929C23.9804 15.6054 24.2348 15.5 24.5 15.5C24.7652 15.5 25.0196 15.6054 25.2071 15.7929C25.3946 15.9804 25.5 16.2348 25.5 16.5ZM20.5 16.5C20.5 15.7089 20.2654 14.9355 19.8259 14.2777C19.3864 13.6199 18.7616 13.1072 18.0307 12.8045C17.2998 12.5017 16.4956 12.4225 15.7196 12.5769C14.9437 12.7312 14.231 13.1122 13.6716 13.6716C13.1122 14.231 12.7312 14.9437 12.5769 15.7196C12.4225 16.4956 12.5017 17.2998 12.8045 18.0307C13.1072 18.7616 13.6199 19.3864 14.2777 19.8259C14.9355 20.2654 15.7089 20.5 16.5 20.5C17.5609 20.5 18.5783 20.0786 19.3284 19.3284C20.0786 18.5783 20.5 17.5609 20.5 16.5ZM14.5 16.5C14.5 16.1044 14.6173 15.7178 14.8371 15.3889C15.0568 15.06 15.3692 14.8036 15.7346 14.6522C16.1001 14.5009 16.5022 14.4613 16.8902 14.5384C17.2781 14.6156 17.6345 14.8061 17.9142 15.0858C18.1939 15.3655 18.3844 15.7219 18.4616 16.1098C18.5387 16.4978 18.4991 16.8999 18.3478 17.2654C18.1964 17.6308 17.94 17.9432 17.6111 18.1629C17.2822 18.3827 16.8956 18.5 16.5 18.5C15.9696 18.5 15.4609 18.2893 15.0858 17.9142C14.7107 17.5391 14.5 17.0304 14.5 16.5Z" fill="var(--main-phone-color)"/>
</svg>
