<svg width="46" height="46" viewBox="0 0 46 46" fill="none" xmlns="http://www.w3.org/2000/svg">
<mask id="mask0_1_874" style="mask-type:alpha" maskUnits="userSpaceOnUse" x="0" y="0" width="46" height="46">
<rect x="0.5" y="0.5" width="45" height="45" fill="var(--main-voicemail-color)"/>
</mask>
<g mask="url(#mask0_1_874)">
<path d="M12.4062 29.9844C10.3125 29.9844 8.55469 29.2109 7.13281 27.6641C5.71094 26.1172 5 24.2578 5 22.0859C5 19.9141 5.76562 18.0625 7.29688 16.5312C8.82813 15 10.6875 14.2344 12.875 14.2344C15.0625 14.2344 16.9219 15 18.4531 16.5312C19.9844 18.0625 20.75 19.9219 20.75 22.1094C20.75 22.9194 20.625 23.6994 20.375 24.4494C20.125 25.1994 19.7812 25.9194 19.3438 26.6094H26.6562C26.2188 25.9194 25.875 25.1994 25.625 24.4494C25.375 23.6994 25.25 22.9194 25.25 22.1094C25.25 19.9219 26.0156 18.0625 27.5469 16.5312C29.0781 15 30.9375 14.2344 33.125 14.2344C35.3125 14.2344 37.1719 15 38.7031 16.5312C40.2344 18.0625 41 19.9219 41 22.1094C41 24.2656 40.2969 26.1172 38.8906 27.6641C37.4844 29.2109 35.7344 29.9844 33.6406 29.9844H12.4062ZM12.8645 26.6094C14.1215 26.6094 15.1875 26.1754 16.0625 25.3074C16.9375 24.4395 17.375 23.377 17.375 22.1199C17.375 20.8629 16.941 19.7969 16.073 18.9219C15.2051 18.0469 14.1426 17.6094 12.8855 17.6094C11.6285 17.6094 10.5625 18.0434 9.6875 18.9113C8.8125 19.7793 8.375 20.8418 8.375 22.0988C8.375 23.3559 8.80898 24.4219 9.67695 25.2969C10.5449 26.1719 11.6074 26.6094 12.8645 26.6094ZM33.1145 26.6094C34.3715 26.6094 35.4375 26.1754 36.3125 25.3074C37.1875 24.4395 37.625 23.377 37.625 22.1199C37.625 20.8629 37.191 19.7969 36.323 18.9219C35.4551 18.0469 34.3926 17.6094 33.1355 17.6094C31.8785 17.6094 30.8125 18.0434 29.9375 18.9113C29.0625 19.7793 28.625 20.8418 28.625 22.0988C28.625 23.3559 29.059 24.4219 29.927 25.2969C30.7949 26.1719 31.8574 26.6094 33.1145 26.6094Z" fill="white"/>
</g>
</svg>
