<svg width="33" height="33" viewBox="0 0 33 33" fill="none" xmlns="http://www.w3.org/2000/svg">
<path d="M27.24 26.8274L7.24001 4.82739C7.15219 4.72839 7.0456 4.64782 6.92641 4.59032C6.80722 4.53283 6.6778 4.49957 6.54566 4.49246C6.41352 4.48535 6.28129 4.50454 6.15662 4.54891C6.03195 4.59329 5.91733 4.66196 5.8194 4.75096C5.72146 4.83996 5.64217 4.94751 5.58611 5.06738C5.53005 5.18725 5.49834 5.31705 5.49282 5.44927C5.48729 5.58149 5.50806 5.71348 5.55393 5.83761C5.59979 5.96174 5.66984 6.07553 5.76001 6.17239L10.5 11.3861V16.4999C10.5001 17.5767 10.7901 18.6337 11.3395 19.5599C11.8888 20.4861 12.6773 21.2474 13.6222 21.7639C14.5671 22.2804 15.6336 22.5331 16.7098 22.4954C17.786 22.4578 18.8323 22.1312 19.7388 21.5499L21.0988 23.0499C19.9001 23.892 18.4932 24.3888 17.0315 24.4861C15.5699 24.5834 14.1095 24.2776 12.8098 23.6018C11.51 22.9261 10.4208 21.9065 9.6608 20.6541C8.90082 19.4018 8.49929 17.9648 8.50001 16.4999C8.50001 16.2347 8.39465 15.9803 8.20711 15.7928C8.01958 15.6052 7.76522 15.4999 7.50001 15.4999C7.23479 15.4999 6.98044 15.6052 6.7929 15.7928C6.60536 15.9803 6.50001 16.2347 6.50001 16.4999C6.50305 18.9781 7.42491 21.3671 9.08731 23.205C10.7497 25.0428 13.0346 26.199 15.5 26.4499V29.4999C15.5 29.7651 15.6054 30.0195 15.7929 30.207C15.9804 30.3945 16.2348 30.4999 16.5 30.4999C16.7652 30.4999 17.0196 30.3945 17.2071 30.207C17.3947 30.0195 17.5 29.7651 17.5 29.4999V26.4486C19.2935 26.2702 21.0051 25.6088 22.4525 24.5349L25.76 28.1724C25.8478 28.2714 25.9544 28.352 26.0736 28.4095C26.1928 28.4669 26.3222 28.5002 26.4544 28.5073C26.5865 28.5144 26.7187 28.4952 26.8434 28.4509C26.9681 28.4065 27.0827 28.3378 27.1806 28.2488C27.2786 28.1598 27.3578 28.0523 27.4139 27.9324C27.47 27.8125 27.5017 27.6827 27.5072 27.5505C27.5127 27.4183 27.492 27.2863 27.4461 27.1622C27.4002 27.038 27.3302 26.9242 27.24 26.8274ZM16.5 20.4999C15.4391 20.4999 14.4217 20.0785 13.6716 19.3283C12.9214 18.5782 12.5 17.5608 12.5 16.4999V13.5861L18.365 20.0386C17.79 20.3416 17.1499 20.4999 16.5 20.4999ZM11.395 5.34739C12.081 4.23655 13.1106 3.37979 14.3276 2.90708C15.5446 2.43438 16.8826 2.37153 18.1385 2.72807C19.3945 3.08461 20.4999 3.84109 21.287 4.88272C22.0741 5.92436 22.5 7.1943 22.5 8.49989V16.0536C22.5 16.3189 22.3947 16.5732 22.2071 16.7607C22.0196 16.9483 21.7652 17.0536 21.5 17.0536C21.2348 17.0536 20.9804 16.9483 20.7929 16.7607C20.6054 16.5732 20.5 16.3189 20.5 16.0536V8.49989C20.5005 7.62903 20.2168 6.78181 19.6919 6.08689C19.167 5.39198 18.4297 4.88733 17.5919 4.6496C16.7542 4.41187 15.8617 4.45405 15.0501 4.76972C14.2384 5.0854 13.552 5.65732 13.095 6.39864C13.0284 6.51522 12.939 6.61721 12.8322 6.69851C12.7254 6.77981 12.6032 6.83876 12.4731 6.87185C12.343 6.90494 12.2075 6.91149 12.0748 6.89111C11.9421 6.87073 11.8149 6.82383 11.7007 6.75322C11.5865 6.6826 11.4877 6.58972 11.4102 6.4801C11.3327 6.37048 11.278 6.24638 11.2495 6.11518C11.221 5.98399 11.2191 5.84839 11.2441 5.71648C11.2691 5.58457 11.3205 5.45904 11.395 5.34739ZM23.955 19.4086C24.3168 18.4816 24.5017 17.495 24.5 16.4999C24.5 16.2347 24.6054 15.9803 24.7929 15.7928C24.9804 15.6052 25.2348 15.4999 25.5 15.4999C25.7652 15.4999 26.0196 15.6052 26.2071 15.7928C26.3947 15.9803 26.5 16.2347 26.5 16.4999C26.5018 17.744 26.2703 18.9774 25.8175 20.1361C25.7717 20.2611 25.7015 20.3758 25.6108 20.4733C25.5202 20.5708 25.411 20.6492 25.2896 20.7039C25.1683 20.7586 25.0372 20.7886 24.9041 20.792C24.7711 20.7954 24.6386 20.7723 24.5146 20.7238C24.3906 20.6754 24.2775 20.6027 24.182 20.51C24.0865 20.4172 24.0104 20.3064 23.9583 20.1839C23.9062 20.0614 23.879 19.9297 23.8785 19.7966C23.8779 19.6635 23.9039 19.5316 23.955 19.4086Z" fill="var(--main-phone-color)"/>
</svg>
