<svg width="46" height="46" viewBox="0 0 46 46" fill="none" xmlns="http://www.w3.org/2000/svg">
<path d="M9.64325 27.9828C8.60695 26.6246 8.10049 24.9356 8.21846 23.2313C8.33643 21.527 9.07076 19.9239 10.2843 18.7214C17.3219 11.723 28.7416 11.7549 35.74 18.7925C36.9469 20.0017 37.6722 21.6089 37.7807 23.3138C37.8891 25.0188 37.3732 26.7049 36.3294 28.0573C36.0625 28.3964 35.6932 28.6401 35.2765 28.752C34.8597 28.864 34.418 28.8381 34.0171 28.6784L27.9893 26.3608L27.9787 26.3502C27.6719 26.2279 27.4001 26.0315 27.1877 25.7786C26.9752 25.5257 26.8287 25.2241 26.7613 24.9007C26.7534 24.8609 26.7482 24.822 26.7439 24.7822L26.414 20.7596C24.4086 20.0708 21.6066 20.0753 19.578 20.7688L19.246 24.7498C19.2425 24.7887 19.2368 24.8273 19.2289 24.8655C19.1628 25.1914 19.0166 25.4957 18.8033 25.7508C18.5901 26.0059 18.3167 26.2039 18.0077 26.3267L17.9909 26.3329L11.9546 28.6141C11.5528 28.7726 11.1106 28.7967 10.6939 28.6829C10.2773 28.5691 9.90869 28.3235 9.64325 27.9828Z" fill="var(--main-phone-color)"/>
</svg>
