<svg width="25" height="25" viewBox="0 0 33 33" fill="var(--main-adminheaderpage-color)" xmlns="http://www.w3.org/2000/svg">
<path d="M28.5 16.5C28.5 16.7652 28.3946 17.0196 28.2071 17.2071C28.0196 17.3946 27.7652 17.5 27.5 17.5H17.5V27.5C17.5 27.7652 17.3946 28.0196 17.2071 28.2071C17.0196 28.3946 16.7652 28.5 16.5 28.5C16.2348 28.5 15.9804 28.3946 15.7929 28.2071C15.6054 28.0196 15.5 27.7652 15.5 27.5V17.5H5.5C5.23478 17.5 4.98043 17.3946 4.79289 17.2071C4.60536 17.0196 4.5 16.7652 4.5 16.5C4.5 16.2348 4.60536 15.9804 4.79289 15.7929C4.98043 15.6054 5.23478 15.5 5.5 15.5H15.5V5.5C15.5 5.23478 15.6054 4.98043 15.7929 4.79289C15.9804 4.60536 16.2348 4.5 16.5 4.5C16.7652 4.5 17.0196 4.60536 17.2071 4.79289C17.3946 4.98043 17.5 5.23478 17.5 5.5V15.5H27.5C27.7652 15.5 28.0196 15.6054 28.2071 15.7929C28.3946 15.9804 28.5 16.2348 28.5 16.5Z" fill="var(--main-phone-color)"/>
</svg>
