<svg width="46" height="46" viewBox="0 0 46 46" fill="none" xmlns="http://www.w3.org/2000/svg">
<mask id="mask0_1_871" style="mask-type:alpha" maskUnits="userSpaceOnUse" x="0" y="0" width="46" height="46">
<rect x="0.5" y="0.5" width="45" height="45" fill="#D9D9D9"/>
</mask>
<g mask="url(#mask0_1_871)">
<path d="M10.625 36.5C9.71875 36.5 8.92969 36.1641 8.25781 35.4922C7.58594 34.8203 7.25 34.0312 7.25 33.125V12.875C7.25 11.9469 7.58594 11.1523 8.25781 10.4914C8.92969 9.83047 9.71875 9.5 10.625 9.5H30.875C31.8031 9.5 32.5977 9.83047 33.2586 10.4914C33.9195 11.1523 34.25 11.9469 34.25 12.875V20.75L39.5469 15.4531C39.7969 15.2031 40.1016 15.1432 40.4609 15.2735C40.8203 15.4036 41 15.651 41 16.0156V29.9786C41 30.3575 40.8203 30.6094 40.4609 30.7344C40.1016 30.8594 39.7969 30.7969 39.5469 30.5469L34.25 25.25V33.125C34.25 34.0312 33.9195 34.8203 33.2586 35.4922C32.5977 36.1641 31.8031 36.5 30.875 36.5H10.625ZM10.625 33.125H30.875V12.875H10.625V33.125Z" fill="white"/>
</g>
</svg>
