<svg width="46" height="46" viewBox="0 0 46 46" fill="none" xmlns="http://www.w3.org/2000/svg">
<mask id="mask0_1_877" style="mask-type:alpha" maskUnits="userSpaceOnUse" x="0" y="0" width="46" height="46">
<rect x="0.5" y="0.5" width="45" height="45" fill="var(--main-callsvg-color)"/>
</mask>
<g mask="url(#mask0_1_877)">
<path d="M36.2656 38.7031C32.4844 38.4219 28.8984 37.4922 25.5078 35.9141C22.1172 34.3359 19.0781 32.2031 16.3906 29.5156C13.7031 26.8281 11.5859 23.7969 10.0391 20.4219C8.49218 17.0469 7.56249 13.4688 7.24999 9.6875C7.18749 9.03125 7.37946 8.46094 7.8259 7.97656C8.27231 7.49219 8.83034 7.25 9.49999 7.25H15.875C16.4062 7.25 16.8672 7.41406 17.2578 7.74219C17.6484 8.07031 17.9062 8.48438 18.0312 8.98438L19.1562 13.9531C19.2187 14.3594 19.1953 14.75 19.0859 15.125C18.9766 15.5 18.7969 15.8125 18.5469 16.0625L14 20.6563C14.625 21.8438 15.3437 22.9844 16.1562 24.0781C16.9687 25.1719 17.8745 26.2029 18.8735 27.1711C19.812 28.1091 20.8125 28.9766 21.875 29.7734C22.9375 30.5703 24.0625 31.2813 25.25 31.9063L29.8906 27.4063C30.1406 27.1563 30.4531 26.9766 30.8281 26.8672C31.2031 26.7578 31.5937 26.7344 32 26.7969L37.0156 27.875C37.5469 28.0313 37.9687 28.3047 38.2812 28.6953C38.5937 29.0859 38.75 29.5469 38.75 30.0781V36.4531C38.75 37.1228 38.5 37.6808 38 38.1272C37.5 38.5737 36.9219 38.7656 36.2656 38.7031ZM12.4531 17.375L15.7344 14.0938L14.93 10.625H10.7187C10.875 11.8125 11.0937 12.9609 11.375 14.0703C11.6562 15.1797 12.0156 16.2813 12.4531 17.375ZM28.5781 33.5C29.675 33.9451 30.793 34.2986 31.932 34.5604C33.0711 34.8222 34.2187 35.0313 35.375 35.1875V30.9688L31.8594 30.2188L28.5781 33.5Z" fill="white"/>
</g>
</svg>
